<svg width="20" height="20" viewBox="0 0 20 20" fill="none" xmlns="http://www.w3.org/2000/svg">
<path fill-rule="evenodd" clip-rule="evenodd" d="M16.4255 2.28332C16.426 2.28332 16.4264 2.28377 16.4273 2.28466L17.7151 3.57261C17.716 3.57328 17.7162 3.57372 17.7164 3.57439C17.7165 3.57483 17.7165 3.57529 17.7164 3.57573C17.7164 3.5764 17.716 3.57685 17.7151 3.57774L11.2932 9.99961L17.7151 16.4215C17.716 16.4224 17.7162 16.4228 17.7164 16.4235C17.7166 16.424 17.7166 16.4246 17.7164 16.4251C17.7164 16.4255 17.716 16.426 17.7151 16.4268L16.4271 17.7146C16.4264 17.7155 16.426 17.7157 16.4255 17.7159C16.425 17.7161 16.4245 17.7161 16.424 17.7159C16.4233 17.7159 16.4229 17.7155 16.422 17.7146L10.0001 11.2927L3.57823 17.7146C3.57733 17.7155 3.57689 17.7157 3.57622 17.7159C3.57571 17.7161 3.57517 17.7161 3.57466 17.7159C3.57421 17.7159 3.57376 17.7155 3.57287 17.7146L2.28515 16.4266C2.28425 16.426 2.28403 16.4255 2.28381 16.4251C2.28365 16.4246 2.28365 16.424 2.28381 16.4235C2.28381 16.4228 2.28425 16.4224 2.28515 16.4215L8.70702 9.99961L2.28515 3.57774C2.28425 3.57685 2.28403 3.5764 2.28381 3.57573C2.28365 3.57522 2.28365 3.57468 2.28381 3.57417C2.28381 3.57372 2.28425 3.57327 2.28515 3.57238L3.57309 2.28466C3.57376 2.28377 3.57421 2.28354 3.57466 2.28332C3.57517 2.28316 3.57571 2.28316 3.57622 2.28332C3.57689 2.28332 3.57733 2.28377 3.57823 2.28466L10.0001 8.70653L16.422 2.28466C16.4229 2.28377 16.4233 2.28354 16.424 2.28332C16.4245 2.28316 16.425 2.28316 16.4255 2.28332Z" fill="#42434B" fill-opacity="0.5"/>
</svg>
