<svg width="24" height="24" viewBox="0 0 24 24" fill="none" xmlns="http://www.w3.org/2000/svg">
<path d="M14.9325 4.7998H17.3715C18.3815 4.7998 19.2 5.62471 19.2 6.64273V9.10088C19.2 10.1189 18.3815 10.9438 17.3715 10.9438H14.9325C13.9225 10.9438 13.104 10.1189 13.104 9.10088V6.64273C13.104 5.62471 13.9225 4.7998 14.9325 4.7998Z" fill="#42434B"/>
<mask id="path-2-inside-1_2175_4184" fill="white">
<path fill-rule="evenodd" clip-rule="evenodd" d="M6.62754 4.7998H9.06544C10.0751 4.7998 10.8932 5.62482 10.8932 6.64298V9.10146C10.8932 10.1196 10.0751 10.9446 9.06544 10.9446H6.62754C5.61791 10.9446 4.7998 10.1196 4.7998 9.10146V6.64298C4.7998 5.62482 5.61791 4.7998 6.62754 4.7998ZM6.62754 13.0557H9.06544C10.0751 13.0557 10.8932 13.8807 10.8932 14.8988V17.3573C10.8932 18.3748 10.0751 19.2005 9.06544 19.2005H6.62754C5.61791 19.2005 4.7998 18.3748 4.7998 17.3573V14.8988C4.7998 13.8807 5.61791 13.0557 6.62754 13.0557ZM17.3723 13.0557H14.9344C13.9247 13.0557 13.1066 13.8807 13.1066 14.8988V17.3573C13.1066 18.3748 13.9247 19.2005 14.9344 19.2005H17.3723C18.3819 19.2005 19.2 18.3748 19.2 17.3573V14.8988C19.2 13.8807 18.3819 13.0557 17.3723 13.0557Z"/>
</mask>
<path fill-rule="evenodd" clip-rule="evenodd" d="M6.62754 4.7998H9.06544C10.0751 4.7998 10.8932 5.62482 10.8932 6.64298V9.10146C10.8932 10.1196 10.0751 10.9446 9.06544 10.9446H6.62754C5.61791 10.9446 4.7998 10.1196 4.7998 9.10146V6.64298C4.7998 5.62482 5.61791 4.7998 6.62754 4.7998ZM6.62754 13.0557H9.06544C10.0751 13.0557 10.8932 13.8807 10.8932 14.8988V17.3573C10.8932 18.3748 10.0751 19.2005 9.06544 19.2005H6.62754C5.61791 19.2005 4.7998 18.3748 4.7998 17.3573V14.8988C4.7998 13.8807 5.61791 13.0557 6.62754 13.0557ZM17.3723 13.0557H14.9344C13.9247 13.0557 13.1066 13.8807 13.1066 14.8988V17.3573C13.1066 18.3748 13.9247 19.2005 14.9344 19.2005H17.3723C18.3819 19.2005 19.2 18.3748 19.2 17.3573V14.8988C19.2 13.8807 18.3819 13.0557 17.3723 13.0557Z" fill="#EFEFEF"/>
<path d="M9.06544 3.9998H6.62754V5.5998H9.06544V3.9998ZM11.6932 6.64298C11.6932 5.18935 10.5232 3.9998 9.06544 3.9998V5.5998C9.62691 5.5998 10.0932 6.06029 10.0932 6.64298H11.6932ZM11.6932 9.10146V6.64298H10.0932V9.10146H11.6932ZM9.06544 11.7446C10.5232 11.7446 11.6932 10.5551 11.6932 9.10146H10.0932C10.0932 9.68415 9.62691 10.1446 9.06544 10.1446V11.7446ZM6.62754 11.7446H9.06544V10.1446H6.62754V11.7446ZM3.9998 9.10146C3.9998 10.5551 5.16975 11.7446 6.62754 11.7446V10.1446C6.06607 10.1446 5.5998 9.68415 5.5998 9.10146H3.9998ZM3.9998 6.64298V9.10146H5.5998V6.64298H3.9998ZM6.62754 3.9998C5.16975 3.9998 3.9998 5.18935 3.9998 6.64298H5.5998C5.5998 6.06029 6.06607 5.5998 6.62754 5.5998V3.9998ZM9.06544 12.2557H6.62754V13.8557H9.06544V12.2557ZM11.6932 14.8988C11.6932 13.4452 10.5232 12.2557 9.06544 12.2557V13.8557C9.62691 13.8557 10.0932 14.3161 10.0932 14.8988H11.6932ZM11.6932 17.3573V14.8988H10.0932V17.3573H11.6932ZM9.06544 20.0005C10.5234 20.0005 11.6932 18.8101 11.6932 17.3573H10.0932C10.0932 17.9395 9.62672 18.4005 9.06544 18.4005V20.0005ZM6.62754 20.0005H9.06544V18.4005H6.62754V20.0005ZM3.9998 17.3573C3.9998 18.8101 5.16956 20.0005 6.62754 20.0005V18.4005C6.06626 18.4005 5.5998 17.9395 5.5998 17.3573H3.9998ZM3.9998 14.8988V17.3573H5.5998V14.8988H3.9998ZM6.62754 12.2557C5.16975 12.2557 3.9998 13.4452 3.9998 14.8988H5.5998C5.5998 14.3161 6.06607 13.8557 6.62754 13.8557V12.2557ZM14.9344 13.8557H17.3723V12.2557H14.9344V13.8557ZM13.9066 14.8988C13.9066 14.3161 14.3729 13.8557 14.9344 13.8557V12.2557C13.4766 12.2557 12.3066 13.4452 12.3066 14.8988H13.9066ZM13.9066 17.3573V14.8988H12.3066V17.3573H13.9066ZM14.9344 18.4005C14.3731 18.4005 13.9066 17.9395 13.9066 17.3573H12.3066C12.3066 18.8101 13.4764 20.0005 14.9344 20.0005V18.4005ZM17.3723 18.4005H14.9344V20.0005H17.3723V18.4005ZM18.4 17.3573C18.4 17.9395 17.9336 18.4005 17.3723 18.4005V20.0005C18.8303 20.0005 20 18.8101 20 17.3573H18.4ZM18.4 14.8988V17.3573H20V14.8988H18.4ZM17.3723 13.8557C17.9338 13.8557 18.4 14.3161 18.4 14.8988H20C20 13.4452 18.8301 12.2557 17.3723 12.2557V13.8557Z" fill="url(#paint0_linear_2175_4184)" mask="url(#path-2-inside-1_2175_4184)"/>
<defs>
<linearGradient id="paint0_linear_2175_4184" x1="11.9999" y1="19.2005" x2="11.9999" y2="4.7998" gradientUnits="userSpaceOnUse">
<stop stop-color="#56575F"/>
<stop offset="0.5" stop-color="#474850"/>
<stop offset="1" stop-color="#42434B"/>
</linearGradient>
</defs>
</svg>
