<svg width="40" height="40" viewBox="0 0 40 40" fill="none" xmlns="http://www.w3.org/2000/svg">
<rect width="40" height="40" rx="12" fill="#F9F9F9"/>
<path d="M28.76 18.9142V24.439C28.76 25.4574 28.3554 26.4341 27.6353 27.1543C26.9152 27.8744 25.9384 28.279 24.92 28.279H14.84C13.8216 28.279 12.8448 27.8744 12.1247 27.1543C11.4046 26.4341 11 25.4574 11 24.439V15.799C11 14.7806 11.4046 13.8038 12.1247 13.0837C12.8448 12.3636 13.8216 11.959 14.84 11.959H21.705" stroke="#42434B" stroke-width="1.5" stroke-linecap="round" stroke-linejoin="round"/>
<path d="M11 15.8848L17.96 19.8496C18.5418 20.1923 19.2047 20.3731 19.88 20.3731C20.5553 20.3731 21.2182 20.1923 21.8 19.8496L28.5 15.8848" stroke="#42434B" stroke-width="1.5" stroke-linecap="round" stroke-linejoin="round"/>
</svg>
