<svg width="48" height="48" viewBox="0 0 48 48" fill="none" xmlns="http://www.w3.org/2000/svg">
<path d="M19.125 22.5C20.989 22.5 22.5 20.989 22.5 19.125C22.5 17.261 20.989 15.75 19.125 15.75C17.261 15.75 15.75 17.261 15.75 19.125C15.75 20.989 17.261 22.5 19.125 22.5Z" stroke="white" stroke-width="1.5" stroke-linecap="round" stroke-linejoin="round"/>
<path d="M28.875 22.5C30.739 22.5 32.25 20.989 32.25 19.125C32.25 17.261 30.739 15.75 28.875 15.75C27.011 15.75 25.5 17.261 25.5 19.125C25.5 20.989 27.011 22.5 28.875 22.5Z" stroke="white" stroke-width="1.5" stroke-linecap="round" stroke-linejoin="round"/>
<path d="M19.125 32.25C20.989 32.25 22.5 30.739 22.5 28.875C22.5 27.011 20.989 25.5 19.125 25.5C17.261 25.5 15.75 27.011 15.75 28.875C15.75 30.739 17.261 32.25 19.125 32.25Z" stroke="white" stroke-width="1.5" stroke-linecap="round" stroke-linejoin="round"/>
<path d="M28.875 32.25C30.739 32.25 32.25 30.739 32.25 28.875C32.25 27.011 30.739 25.5 28.875 25.5C27.011 25.5 25.5 27.011 25.5 28.875C25.5 30.739 27.011 32.25 28.875 32.25Z" stroke="white" stroke-width="1.5" stroke-linecap="round" stroke-linejoin="round"/>
</svg>
