<svg width="24" height="24" viewBox="0 0 24 24" fill="none" xmlns="http://www.w3.org/2000/svg">
<g opacity="0.65">
<path d="M15.2002 13H12.7002V15.5C12.7002 15.6326 12.6475 15.7598 12.5537 15.8536C12.46 15.9473 12.3328 16 12.2002 16C12.0676 16 11.9404 15.9473 11.8466 15.8536C11.7529 15.7598 11.7002 15.6326 11.7002 15.5V13H9.2002C9.06759 13 8.94041 12.9473 8.84664 12.8536C8.75287 12.7598 8.7002 12.6326 8.7002 12.5C8.7002 12.3674 8.75287 12.2402 8.84664 12.1464C8.94041 12.0527 9.06759 12 9.2002 12H11.7002V9.5C11.7002 9.36739 11.7529 9.24021 11.8466 9.14645C11.9404 9.05268 12.0676 9 12.2002 9C12.3328 9 12.46 9.05268 12.5537 9.14645C12.6475 9.24021 12.7002 9.36739 12.7002 9.5V12H15.2002C15.3328 12 15.46 12.0527 15.5537 12.1464C15.6475 12.2402 15.7002 12.3674 15.7002 12.5C15.7002 12.6326 15.6475 12.7598 15.5537 12.8536C15.46 12.9473 15.3328 13 15.2002 13Z" fill="#42434B"/>
</g>
</svg>
