<svg width="24" height="24" viewBox="0 0 24 24" fill="none" xmlns="http://www.w3.org/2000/svg">
<g clip-path="url(#clip0_2175_4205)">
<path d="M8.38281 14.5C7.67531 14.5 7.32181 14.5 7.10281 14.683C6.88281 14.866 6.88281 15.161 6.88281 15.75C6.88281 16.339 6.88331 16.634 7.10281 16.817C7.32231 17 7.67531 17 8.38281 17C9.09031 17 9.44381 17 9.66281 16.817C9.88281 16.634 9.88281 16.339 9.88281 15.75C9.88281 15.161 9.88231 14.866 9.66281 14.683C9.44331 14.5 9.09031 14.5 8.38281 14.5ZM8.38281 14.5C8.38281 13.259 8.75481 13 10.5368 13H13.2288C15.0108 13 15.3828 13.259 15.3828 14.5M15.3828 14.5C14.6753 14.5 14.3218 14.5 14.1028 14.683C13.8828 14.866 13.8828 15.161 13.8828 15.75C13.8828 16.339 13.8833 16.634 14.1028 16.817C14.3223 17 14.6753 17 15.3828 17C16.0903 17 16.4438 17 16.6628 16.817C16.8828 16.634 16.8828 16.339 16.8828 15.75C16.8828 15.161 16.8823 14.866 16.6628 14.683C16.4433 14.5 16.0903 14.5 15.3828 14.5ZM11.8828 9.25L12.3828 8.5M14.1328 9.25C14.1328 9.84674 13.8958 10.419 13.4738 10.841C13.0518 11.2629 12.4795 11.5 11.8828 11.5C11.2861 11.5 10.7138 11.2629 10.2918 10.841C9.86987 10.419 9.63281 9.84674 9.63281 9.25C9.63281 8.65326 9.86987 8.08097 10.2918 7.65901C10.7138 7.23705 11.2861 7 11.8828 7C12.4795 7 13.0518 7.23705 13.4738 7.65901C13.8958 8.08097 14.1328 8.65326 14.1328 9.25Z" stroke="#42434B" stroke-linecap="round" stroke-linejoin="round"/>
</g>
<defs>
<clipPath id="clip0_2175_4205">
<rect width="12" height="12" fill="white" transform="translate(5.88281 6)"/>
</clipPath>
</defs>
</svg>
