<svg width="48" height="48" viewBox="0 0 48 48" fill="none" xmlns="http://www.w3.org/2000/svg">
<path d="M32.625 28.4372V19.5624C32.625 19.4296 32.5897 19.2992 32.5228 19.1844C32.4559 19.0697 32.3597 18.9748 32.244 18.9095L24.369 14.4584C24.2565 14.3948 24.1293 14.3613 24 14.3613C23.8707 14.3613 23.7435 14.3948 23.631 14.4584L15.756 18.9095C15.6403 18.9748 15.5441 19.0697 15.4772 19.1844C15.4103 19.2992 15.375 19.4296 15.375 19.5624V28.4372C15.375 28.57 15.4103 28.7005 15.4772 28.8152C15.5441 28.9299 15.6403 29.0248 15.756 29.0901L23.631 33.5412C23.7435 33.6049 23.8707 33.6383 24 33.6383C24.1293 33.6383 24.2565 33.6049 24.369 33.5412L32.244 29.0901C32.3597 29.0248 32.4559 28.9299 32.5228 28.8152C32.5897 28.7005 32.625 28.57 32.625 28.4372V28.4372Z" stroke="white" stroke-width="1.5" stroke-linecap="round" stroke-linejoin="round"/>
<path d="M24 27.375C25.864 27.375 27.375 25.864 27.375 24C27.375 22.136 25.864 20.625 24 20.625C22.136 20.625 20.625 22.136 20.625 24C20.625 25.864 22.136 27.375 24 27.375Z" stroke="white" stroke-width="1.5" stroke-linecap="round" stroke-linejoin="round"/>
</svg>
