<svg width="40" height="40" viewBox="0 0 40 40" fill="none" xmlns="http://www.w3.org/2000/svg">
<rect width="40" height="40" rx="12" fill="#F9F9F9"/>
<path d="M26.7683 25.7746H13.1883C11.3683 25.7746 11.4883 24.2146 11.7083 23.5246C12.0683 22.3646 13.4383 21.1946 13.4383 19.9046C13.4383 17.0546 13.4383 16.3046 14.8383 14.6346C15.2931 14.0951 15.8549 13.6558 16.4883 13.3446L17.2783 12.9646C17.4203 12.8945 17.5437 12.7917 17.6383 12.6646C17.737 12.5423 17.8055 12.3984 17.8383 12.2446C17.9178 11.7461 18.1776 11.2942 18.5683 10.9746L18.5936 10.9573C19.4423 10.3796 20.5578 10.3795 21.4066 10.9569L21.4326 10.9746C21.8233 11.2942 22.0831 11.7461 22.1626 12.2446C22.1954 12.3984 22.2639 12.5423 22.3626 12.6646C22.4572 12.7917 22.5806 12.8945 22.7226 12.9646L23.5126 13.3446C24.146 13.6558 24.7078 14.0951 25.1626 14.6346C26.5626 16.3046 26.5626 17.0546 26.5626 19.9046C26.5626 21.1946 27.9326 22.3646 28.2926 23.5246C28.5126 24.2146 28.6326 25.7746 26.8126 25.7746H13.2326" stroke="#42434B" stroke-width="1.5" stroke-linecap="round" stroke-linejoin="round"/>
<path d="M23.2285 25.7744C23.2315 26.2014 23.1535 26.6254 22.9985 27.0244C22.8308 27.4194 22.5899 27.779 22.2885 28.0844C21.9836 28.3902 21.62 28.6311 21.2196 28.7927C20.8192 28.9542 20.3902 29.033 19.9585 29.0244C19.5259 29.0271 19.0973 28.9421 18.6985 28.7744C17.8989 28.4398 17.2631 27.804 16.9285 27.0044C16.7716 26.6135 16.6934 26.1956 16.6985 25.7744" stroke="#42434B" stroke-width="1.5" stroke-linecap="round" stroke-linejoin="round"/>
</svg>
