<svg width="24" height="24" viewBox="0 0 24 24" fill="none" xmlns="http://www.w3.org/2000/svg">
<g clip-path="url(#clip0_2175_4175)">
<path d="M8.58231 11.6809C8.83781 11.9399 8.98656 12.2785 9.07844 12.6171C9.25781 13.2751 9.25781 14.0889 9.25781 14.718V14.7504C9.25781 16.5511 8.92094 17.6204 8.53944 18.2565C8.39489 18.5067 8.20567 18.7282 7.98119 18.9101C7.89189 18.9792 7.79502 19.0379 7.69244 19.0851C7.69244 19.0851 7.58131 19.1254 7.50781 19.1254C7.44473 19.1204 7.38263 19.1068 7.32319 19.0851C7.22061 19.0379 7.12373 18.9792 7.03444 18.9101C6.80995 18.7282 6.62074 18.5067 6.47619 18.2565C6.09469 17.6212 5.75781 16.5511 5.75781 14.7504V14.7189C5.75781 14.0889 5.75781 13.276 5.93719 12.6162C6.02906 12.2785 6.17781 11.9399 6.43331 11.68C6.02031 11.2889 5.75781 10.6659 5.75781 9.93787C5.75781 9.65262 5.83394 9.31224 5.93894 8.99812C6.04394 8.68399 6.19094 8.35762 6.36069 8.09512C6.56281 7.75387 6.84719 7.46774 7.06769 7.27524C7.18902 7.16946 7.31515 7.06931 7.44569 6.97512L7.47194 6.95762L7.47981 6.95149L7.48244 6.94974L7.48419 6.94887C7.56445 6.89424 7.66061 6.86786 7.75751 6.87389C7.85441 6.87992 7.94655 6.91801 8.01943 6.98216C8.0923 7.04632 8.14177 7.13289 8.16003 7.22825C8.1783 7.3236 8.16432 7.42232 8.12031 7.50887C8.11263 7.5341 8.10879 7.56036 8.10894 7.58674C8.10894 7.64187 8.12294 7.74687 8.25506 7.87812C8.31894 7.94199 8.36794 7.98749 8.42131 8.03737C8.46506 8.07762 8.51144 8.11962 8.57006 8.17737C8.68381 8.28587 8.80369 8.41362 8.91131 8.57374C9.13444 8.90887 9.25781 9.32799 9.25781 9.93787C9.25781 10.6659 8.99531 11.288 8.58231 11.6809ZM7.50781 12.1254C7.28906 12.1254 7.15781 12.1936 7.05894 12.2916C6.94869 12.4027 6.85331 12.583 6.78156 12.8464C6.63631 13.381 6.63281 14.0827 6.63281 14.7504C6.63281 16.4496 6.95219 17.3491 7.22694 17.8067C7.33194 17.9817 7.43081 18.0946 7.50781 18.1655C7.61833 18.0602 7.71295 17.9393 7.78869 17.8067C8.06344 17.3482 8.38281 16.4496 8.38281 14.7504C8.38281 14.0827 8.37931 13.381 8.23406 12.8464C8.16231 12.5839 8.06694 12.4027 7.95669 12.2916C7.85781 12.1936 7.72569 12.1254 7.50781 12.1254ZM6.63281 9.93787C6.63281 10.8759 7.17094 11.2504 7.50781 11.2504C7.84469 11.2504 8.38281 10.8759 8.38281 9.93787C8.38281 9.45399 8.28744 9.21687 8.18244 9.05937C8.11843 8.96751 8.0448 8.88274 7.96281 8.80649L7.85431 8.70499C7.78021 8.63713 7.70728 8.56799 7.63556 8.49762C7.54011 8.40269 7.45799 8.29525 7.39144 8.17824C7.2801 8.29538 7.18208 8.42451 7.09919 8.56324C6.97669 8.75137 6.85769 9.00949 6.76931 9.27549C6.67831 9.54674 6.63281 9.78649 6.63281 9.93787ZM11.0061 15.6017C10.7028 15.5679 10.4044 15.4989 10.1171 15.3961C10.1276 15.1768 10.1328 14.9499 10.1328 14.7154V14.4564C10.4041 14.585 10.6981 14.6751 11.0061 14.7189V13.0004C11.0061 12.5362 11.1904 12.0911 11.5186 11.7629C11.8468 11.4347 12.2919 11.2504 12.7561 11.2504H14.4754C14.4058 10.7666 14.2215 10.3065 13.9377 9.90849C13.6539 9.51052 13.279 9.18625 12.8443 8.96278C12.4097 8.73931 11.9278 8.62313 11.439 8.62395C10.9502 8.62477 10.4688 8.74256 10.0348 8.96749C9.96607 8.68143 9.85268 8.40799 9.69881 8.15724C10.2659 7.87696 10.8922 7.73745 11.5247 7.75051C12.1571 7.76358 12.7771 7.92883 13.3322 8.23228C13.8872 8.53573 14.361 8.96845 14.7134 9.4938C15.0658 10.0192 15.2864 10.6217 15.3566 11.2504H16.2552C16.7193 11.2504 17.1644 11.4347 17.4926 11.7629C17.8208 12.0911 18.0052 12.5362 18.0052 13.0004V16.5004C18.0052 16.9645 17.8208 17.4096 17.4926 17.7378C17.1644 18.066 16.7193 18.2504 16.2552 18.2504H12.7552C12.2911 18.2504 11.8459 18.066 11.5178 17.7378C11.1896 17.4096 11.0052 16.9645 11.0052 16.5004L11.0061 15.6017ZM15.3574 12.1254C15.2583 13.0133 14.8602 13.841 14.2285 14.4728C13.5967 15.1045 12.769 15.5026 11.8811 15.6017V16.5004C11.8811 16.7324 11.9732 16.955 12.1373 17.1191C12.3014 17.2832 12.524 17.3754 12.7561 17.3754H16.2561C16.4881 17.3754 16.7107 17.2832 16.8748 17.1191C17.0389 16.955 17.1311 16.7324 17.1311 16.5004V13.0004C17.1311 12.7683 17.0389 12.5457 16.8748 12.3816C16.7107 12.2176 16.4881 12.1254 16.2561 12.1254H15.3574ZM14.4754 12.1254H12.7561C12.524 12.1254 12.3014 12.2176 12.1373 12.3816C11.9732 12.5457 11.8811 12.7683 11.8811 13.0004V14.7197C12.5357 14.6254 13.1421 14.3217 13.6098 13.8541C14.0774 13.3864 14.3811 12.78 14.4754 12.1254Z" fill="#42434B"/>
</g>
<defs>
<clipPath id="clip0_2175_4175">
<rect width="14" height="14" fill="white" transform="translate(4.88281 6)"/>
</clipPath>
</defs>
</svg>
