<svg width="44" height="44" viewBox="0 0 44 44" fill="none" xmlns="http://www.w3.org/2000/svg">
<rect width="44" height="44" rx="12" fill="white"/>
<path d="M17.1255 11.2401C15.6805 11.8543 14.9041 12.7971 14.6884 14.0542C14.5159 15.0612 14.6381 15.7112 14.8322 16.154C15.0335 16.604 15.4002 17.0397 16.0328 17.4825C17.4131 18.4395 19.5052 19.0609 22.1364 19.8037C22.2083 19.8252 22.273 19.8466 22.3449 19.8609C24.6957 20.5251 27.5211 21.3322 29.5987 22.7678C30.7274 23.5463 31.7483 24.5891 32.3737 25.989C33.0064 27.4032 33.1502 28.9888 32.8482 30.7244C32.3234 33.7599 30.3105 35.8454 27.6864 36.9596C25.1415 38.0453 21.9998 38.2381 18.7934 37.7381H18.7791C17.0537 37.4596 14.2715 36.5168 12.4814 35.9097C12.1363 35.7883 11.82 35.6883 11.5611 35.6026C10.3677 35.1955 9.72072 33.9027 10.1161 32.7028C10.5115 31.5029 11.82 30.8601 13.0277 31.2529C13.38 31.3672 13.761 31.4957 14.1708 31.6386C15.9969 32.2528 18.2255 33.0099 19.5195 33.217C22.1651 33.6241 24.3722 33.3956 25.8819 32.7528C27.327 32.1385 28.0962 31.1958 28.3191 29.9387C28.4916 28.9316 28.3694 28.2817 28.1753 27.8389C27.974 27.3889 27.6073 26.9532 26.9747 26.5104C25.5944 25.5533 23.5023 24.9319 20.8711 24.1891C20.7992 24.1677 20.7345 24.1463 20.6626 24.132C18.3118 23.4678 15.4864 22.6607 13.4088 21.2251C12.2801 20.4465 11.2592 19.4038 10.6337 18.0039C10.0011 16.5897 9.85731 15.0041 10.1593 13.2685L12.4238 13.6613L10.1521 13.2756C10.6769 10.2401 12.6898 8.15459 15.3139 7.04038C17.8588 5.95475 21.0005 5.76191 24.2069 6.26187C25.1415 6.40472 27.974 6.94753 28.9948 7.21894C30.2242 7.54035 30.9503 8.7974 30.6268 10.0187C30.3033 11.2401 29.038 11.9615 27.8086 11.64C27.0034 11.4258 24.3506 10.9115 23.488 10.783C20.8352 10.3687 18.6353 10.6044 17.1184 11.2472L17.1255 11.2401Z" fill="#E10D34"/>
</svg>
