<svg width="24" height="24" viewBox="0 0 24 24" fill="none" xmlns="http://www.w3.org/2000/svg">
<g opacity="0.65">
<path d="M15.2002 13H12.7002H12.1768H11.7002H9.2002C9.06759 13 8.94041 12.9473 8.84664 12.8536C8.75287 12.7598 8.7002 12.6326 8.7002 12.5C8.7002 12.3674 8.75287 12.2402 8.84664 12.1464C8.94041 12.0527 9.06759 12 9.2002 12H11.7002H12.1768H12.7002H15.2002C15.3328 12 15.46 12.0527 15.5537 12.1464C15.6475 12.2402 15.7002 12.3674 15.7002 12.5C15.7002 12.6326 15.6475 12.7598 15.5537 12.8536C15.46 12.9473 15.3328 13 15.2002 13Z" fill="#42434B"/>
</g>
</svg>
