<svg width="40" height="40" viewBox="0 0 40 40" fill="none" xmlns="http://www.w3.org/2000/svg">
<rect width="40" height="40" rx="12" fill="#F9F9F9"/>
<path d="M21.0962 24.75C21.0962 24.9668 21.0319 25.1787 20.9114 25.359C20.791 25.5392 20.6198 25.6797 20.4195 25.7627C20.2192 25.8457 19.9988 25.8674 19.7862 25.8251C19.5735 25.7828 19.3782 25.6784 19.2249 25.5251C19.0716 25.3718 18.9672 25.1765 18.9249 24.9638C18.8826 24.7512 18.9043 24.5308 18.9873 24.3305C19.0703 24.1302 19.2108 23.959 19.391 23.8386C19.5713 23.7181 19.7832 23.6538 20 23.6538C20.2907 23.6538 20.5695 23.7693 20.7751 23.9749C20.9807 24.1805 21.0962 24.4593 21.0962 24.75ZM20 14.8846C17.9849 14.8846 16.3462 16.3599 16.3462 18.1731V18.5385C16.3462 18.7323 16.4231 18.9181 16.5602 19.0552C16.6972 19.1922 16.8831 19.2692 17.0769 19.2692C17.2707 19.2692 17.4566 19.1922 17.5937 19.0552C17.7307 18.9181 17.8077 18.7323 17.8077 18.5385V18.1731C17.8077 17.1683 18.7915 16.3462 20 16.3462C21.2085 16.3462 22.1923 17.1683 22.1923 18.1731C22.1923 19.1779 21.2085 20 20 20C19.8062 20 19.6203 20.077 19.4833 20.214C19.3462 20.3511 19.2692 20.537 19.2692 20.7308V21.4615C19.2692 21.6553 19.3462 21.8412 19.4833 21.9783C19.6203 22.1153 19.8062 22.1923 20 22.1923C20.1938 22.1923 20.3797 22.1153 20.5167 21.9783C20.6538 21.8412 20.7308 21.6553 20.7308 21.4615V21.3958C22.3969 21.0898 23.6538 19.7607 23.6538 18.1731C23.6538 16.3599 22.0151 14.8846 20 14.8846ZM29.5 20C29.5 21.8789 28.9428 23.7156 27.899 25.2779C26.8551 26.8402 25.3714 28.0578 23.6355 28.7769C21.8996 29.4959 19.9895 29.684 18.1466 29.3175C16.3038 28.9509 14.6111 28.0461 13.2825 26.7175C11.9539 25.3889 11.0491 23.6962 10.6825 21.8534C10.316 20.0105 10.5041 18.1004 11.2231 16.3645C11.9422 14.6286 13.1598 13.1449 14.7221 12.101C16.2844 11.0572 18.1211 10.5 20 10.5C22.5187 10.5027 24.9336 11.5044 26.7146 13.2854C28.4956 15.0664 29.4973 17.4813 29.5 20ZM28.0385 20C28.0385 18.4101 27.567 16.856 26.6837 15.5341C25.8005 14.2122 24.545 13.1818 23.0762 12.5734C21.6074 11.965 19.9911 11.8058 18.4318 12.116C16.8725 12.4262 15.4402 13.1918 14.316 14.3159C13.1918 15.4401 12.4262 16.8725 12.116 18.4318C11.8058 19.9911 11.965 21.6073 12.5734 23.0762C13.1818 24.545 14.2122 25.8005 15.5341 26.6837C16.856 27.567 18.4101 28.0385 20 28.0385C22.1312 28.036 24.1744 27.1884 25.6814 25.6814C27.1884 24.1744 28.036 22.1312 28.0385 20Z" fill="#42434B"/>
</svg>
