<svg width="48" height="48" viewBox="0 0 48 48" fill="none" xmlns="http://www.w3.org/2000/svg">
<rect x="4" y="4" width="40" height="40" rx="12" fill="#F9F9F9"/>
<path d="M20.2505 27C22.9429 27 25.1255 24.8174 25.1255 22.125C25.1255 19.4326 22.9429 17.25 20.2505 17.25C17.5581 17.25 15.3755 19.4326 15.3755 22.125C15.3755 24.8174 17.5581 27 20.2505 27Z" stroke="#42434B" stroke-width="1.5" stroke-miterlimit="10"/>
<path d="M26.5703 17.4317C27.2408 17.2428 27.9441 17.1998 28.6326 17.3055C29.3212 17.4113 29.9791 17.6633 30.562 18.0447C31.1449 18.4262 31.6393 18.9281 32.012 19.5167C32.3846 20.1052 32.6268 20.7669 32.7221 21.4569C32.8175 22.147 32.764 22.8495 32.565 23.5171C32.366 24.1847 32.0263 24.8019 31.5687 25.3272C31.1111 25.8524 30.5463 26.2735 29.9123 26.5621C29.2782 26.8507 28.5897 27.0001 27.8931 27.0001" stroke="#42434B" stroke-width="1.5" stroke-linecap="round" stroke-linejoin="round"/>
<path d="M13.5 30.5059C14.2614 29.4229 15.2721 28.539 16.447 27.9288C17.6218 27.3186 18.9262 27.0001 20.2501 27C21.5739 26.9999 22.8784 27.3184 24.0532 27.9285C25.2281 28.5386 26.239 29.4225 27.0004 30.5054" stroke="#42434B" stroke-width="1.5" stroke-linecap="round" stroke-linejoin="round"/>
<path d="M27.8931 27C29.217 26.999 30.5217 27.3171 31.6967 27.9273C32.8717 28.5375 33.8824 29.4218 34.6431 30.5054" stroke="#42434B" stroke-width="1.5" stroke-linecap="round" stroke-linejoin="round"/>
</svg>
